<svg version="1" xmlns="http://www.w3.org/2000/svg" width="346.667" height="346.667" viewBox="0 0 260.000000 260.000000"><path d="M1 1.8C1 2.3 8.9 24 18.5 50c9.7 26 30.6 82.6 46.5 125.9 15.9 43.2 29.2 79.4 29.5 80.3.7 1.7 3 1.8 28.6 1.8 16.6 0 27.9-.4 27.9-.9s-8.9-24.5-19.9-53.3c-24-63.2-30.6-81-51.6-139.8-9-25-17.7-49.4-19.5-54.3L56.8 1H28.9C13.6 1 1 1.4 1 1.8zM108 1.9c0 .4 6.3 17.9 14.1 38.7 10.9 29.3 74 200.6 79.1 214.6l1 2.8h27.9c16.2 0 27.9-.4 27.9-.9s-4.8-13.5-10.6-28.8C221.2 159.4 204.1 113.2 189 71c-8.9-25-18.2-51-20.7-57.8L163.8 1h-27.9c-15.3 0-27.9.4-27.9.9z"/></svg>